<svg xmlns="http://www.w3.org/2000/svg" width="24" height="24" viewBox="0 0 24 24" fill="none"><g clip-path="url(#clip0_3882_131272)"><path d="M15.9145 0.757812C17.4678 0.757812 18.727 2.01702 18.727 3.57031C18.727 5.1236 17.4678 6.38281 15.9145 6.38281C14.3612 6.38281 13.102 5.1236 13.102 3.57031C13.102 2.01702 14.3612 0.757812 15.9145 0.757812ZM21.1564 16.3223L19.0471 7.88482C18.99 7.65664 18.8583 7.45407 18.6729 7.30932C18.4875 7.16457 18.2591 7.08594 18.0239 7.08594H17.5247C16.5266 7.54486 15.3454 7.56468 14.3044 7.08594H13.8051C13.5699 7.08594 13.3415 7.16457 13.1561 7.30932C12.9707 7.45407 12.839 7.65664 12.782 7.88482L10.6726 16.3223C10.5064 16.987 11.0095 17.6328 11.6958 17.6328H14.1567V22.2031C14.1567 22.7856 14.6289 23.2578 15.2114 23.2578H16.6176C17.2001 23.2578 17.6723 22.7856 17.6723 22.2031V17.6328H20.1333C20.8184 17.6328 21.3229 16.9881 21.1564 16.3223Z" fill="black"></path><path d="M6.09375 0.757812C7.64704 0.757812 8.90625 2.01702 8.90625 3.57031C8.90625 5.1236 7.64704 6.38281 6.09375 6.38281C4.54046 6.38281 3.28125 5.1236 3.28125 3.57031C3.28125 2.01702 4.54046 0.757812 6.09375 0.757812ZM8.20312 7.08594H7.70391C6.70586 7.54486 5.52466 7.56468 4.48359 7.08594H3.98438C2.81938 7.08594 1.875 8.03032 1.875 9.19531V15.1719C1.875 15.7544 2.34719 16.2266 2.92969 16.2266H3.63281V22.2031C3.63281 22.7856 4.105 23.2578 4.6875 23.2578H7.5C8.0825 23.2578 8.55469 22.7856 8.55469 22.2031V16.2266H9.25781C9.84031 16.2266 10.3125 15.7544 10.3125 15.1719V9.19531C10.3125 8.03032 9.36812 7.08594 8.20312 7.08594Z" fill="black"></path></g><defs><clipPath id="clip0_3882_131272"><rect width="24" height="24" fill="white" transform="translate(0 0.0078125)"></rect></clipPath></defs></svg>