<svg xmlns="http://www.w3.org/2000/svg" width="10" height="24" viewBox="0 0 10 24" fill="none"><path d="M5 0.75C6.55329 0.75 7.8125 2.00921 7.8125 3.5625C7.8125 5.11579 6.55329 6.375 5 6.375C3.44671 6.375 2.1875 5.11579 2.1875 3.5625C2.1875 2.00921 3.44671 0.75 5 0.75ZM7.10938 7.07812H6.61016C5.61211 7.53705 4.43091 7.55687 3.38984 7.07812H2.89062C1.72563 7.07812 0.78125 8.02251 0.78125 9.1875V15.1641C0.78125 15.7466 1.25344 16.2188 1.83594 16.2188H2.53906V22.1953C2.53906 22.7778 3.01125 23.25 3.59375 23.25H6.40625C6.98875 23.25 7.46094 22.7778 7.46094 22.1953V16.2188H8.16406C8.74656 16.2188 9.21875 15.7466 9.21875 15.1641V9.1875C9.21875 8.02251 8.27437 7.07812 7.10938 7.07812Z" fill="black"></path></svg>