<svg xmlns="http://www.w3.org/2000/svg" width="24" height="24" viewBox="0 0 24 24" fill="none"><g clip-path="url(#clip0_3882_131280)"><path d="M6.09375 0.757812C7.64704 0.757812 8.90625 2.01702 8.90625 3.57031C8.90625 5.1236 7.64704 6.38281 6.09375 6.38281C4.54046 6.38281 3.28125 5.1236 3.28125 3.57031C3.28125 2.01702 4.54046 0.757812 6.09375 0.757812ZM8.20312 7.08594H7.70391C6.70586 7.54486 5.52466 7.56468 4.48359 7.08594H3.98438C2.81938 7.08594 1.875 8.03032 1.875 9.19531V15.1719C1.875 15.7544 2.34719 16.2266 2.92969 16.2266H3.63281V22.2031C3.63281 22.7856 4.105 23.2578 4.6875 23.2578H7.5C8.0825 23.2578 8.55469 22.7856 8.55469 22.2031V16.2266H9.25781C9.84031 16.2266 10.3125 15.7544 10.3125 15.1719V9.19531C10.3125 8.03032 9.36812 7.08594 8.20312 7.08594Z" fill="black"></path><path d="M17.9062 0.757812C19.4595 0.757812 20.7188 2.01702 20.7188 3.57031C20.7188 5.1236 19.4595 6.38281 17.9062 6.38281C16.353 6.38281 15.0938 5.1236 15.0938 3.57031C15.0938 2.01702 16.353 0.757812 17.9062 0.757812ZM20.0156 7.08594H19.5164C18.5184 7.54486 17.3372 7.56468 16.2961 7.08594H15.7969C14.6319 7.08594 13.6875 8.03032 13.6875 9.19531V15.1719C13.6875 15.7544 14.1597 16.2266 14.7422 16.2266H15.4453V22.2031C15.4453 22.7856 15.9175 23.2578 16.5 23.2578H19.3125C19.895 23.2578 20.3672 22.7856 20.3672 22.2031V16.2266H21.0703C21.6528 16.2266 22.125 15.7544 22.125 15.1719V9.19531C22.125 8.03032 21.1806 7.08594 20.0156 7.08594Z" fill="black"></path></g><defs><clipPath id="clip0_3882_131280"><rect width="24" height="24" fill="white" transform="translate(0 0.0078125)"></rect></clipPath></defs></svg>