<svg xmlns="http://www.w3.org/2000/svg" width="12" height="24" viewBox="0 0 12 24" fill="none"><path d="M6.00044 0.757812C7.55374 0.757812 8.81295 2.01702 8.81295 3.57031C8.81295 5.1236 7.55374 6.38281 6.00044 6.38281C4.44715 6.38281 3.18794 5.1236 3.18794 3.57031C3.18794 2.01702 4.44715 0.757812 6.00044 0.757812ZM11.2424 16.3223L9.133 7.88482C9.07595 7.65664 8.94427 7.45407 8.75887 7.30932C8.57348 7.16457 8.34503 7.08594 8.10982 7.08594H7.6106C6.61256 7.54486 5.43135 7.56468 4.39029 7.08594H3.89107C3.65586 7.08594 3.42741 7.16457 3.24202 7.30932C3.05662 7.45407 2.92494 7.65664 2.86789 7.88482L0.758516 16.3223C0.592315 16.987 1.0954 17.6328 1.78169 17.6328H4.24263V22.2031C4.24263 22.7856 4.71482 23.2578 5.29732 23.2578H6.70357C7.28607 23.2578 7.75826 22.7856 7.75826 22.2031V17.6328H10.2192C10.9043 17.6328 11.4088 16.9881 11.2424 16.3223Z" fill="black"></path></svg>