<svg xmlns="http://www.w3.org/2000/svg" width="24" height="24" viewBox="0 0 24 24" fill="none"><g clip-path="url(#clip0_3882_131276)"><path d="M6.21138 0.757812C7.76467 0.757812 9.02388 2.01702 9.02388 3.57031C9.02388 5.1236 7.76467 6.38281 6.21138 6.38281C4.65809 6.38281 3.39888 5.1236 3.39888 3.57031C3.39888 2.01702 4.65809 0.757812 6.21138 0.757812ZM11.4533 16.3223L9.34394 7.88482C9.28689 7.65664 9.1552 7.45407 8.96981 7.30932C8.78442 7.16457 8.55596 7.08594 8.32076 7.08594H7.82154C6.8235 7.54486 5.64229 7.56468 4.60123 7.08594H4.10201C3.8668 7.08594 3.63834 7.16457 3.45295 7.30932C3.26756 7.45407 3.13588 7.65664 3.07883 7.88482L0.969454 16.3223C0.803253 16.987 1.30634 17.6328 1.99263 17.6328H4.45357V22.2031C4.45357 22.7856 4.92576 23.2578 5.50826 23.2578H6.91451C7.497 23.2578 7.9692 22.7856 7.9692 22.2031V17.6328H10.4301C11.1153 17.6328 11.6198 16.9881 11.4533 16.3223Z" fill="black"></path><path d="M17.7895 0.757812C19.3428 0.757812 20.602 2.01702 20.602 3.57031C20.602 5.1236 19.3428 6.38281 17.7895 6.38281C16.2362 6.38281 14.977 5.1236 14.977 3.57031C14.977 2.01702 16.2362 0.757812 17.7895 0.757812ZM23.0314 16.3223L20.9221 7.88482C20.865 7.65664 20.7333 7.45407 20.5479 7.30932C20.3625 7.16457 20.1341 7.08594 19.8989 7.08594H19.3997C18.4016 7.54486 17.2204 7.56468 16.1794 7.08594H15.6801C15.4449 7.08594 15.2165 7.16457 15.0311 7.30932C14.8457 7.45407 14.714 7.65664 14.657 7.88482L12.5476 16.3223C12.3814 16.987 12.8845 17.6328 13.5708 17.6328H16.0317V22.2031C16.0317 22.7856 16.5039 23.2578 17.0864 23.2578H18.4926C19.0751 23.2578 19.5473 22.7856 19.5473 22.2031V17.6328H22.0083C22.6934 17.6328 23.1979 16.9881 23.0314 16.3223Z" fill="black"></path></g><defs><clipPath id="clip0_3882_131276"><rect width="24" height="24" fill="white" transform="translate(0 0.0078125)"></rect></clipPath></defs></svg>